<svg xmlns="http://www.w3.org/2000/svg" xmlns:xlink="http://www.w3.org/1999/xlink" xmlns:ifc="http://www.ifcopenshell.org/ns" width="440mm" height="299.769mm" viewBox="0 0 440 299.769">
    <defs>
        <marker id="arrowend" markerWidth="10" markerHeight="7" refX="10" refY="3.5" orient="auto">
          <polygon points="0 0, 10 3.5, 0 7"/>
        </marker>
        <marker id="arrowstart" markerWidth="10" markerHeight="7" refX="0" refY="3.5" orient="auto">
          <polygon points="10 0, 0 3.5, 10 7"/>
        </marker>
    </defs>
    <g ifc:name="Elevation GROUND FLOOR PLAN" class="section" ifc:plane="[[1.000000,0.000000,0.000000,0.000000],[0.000000,1.000000,0.000000,0.000000],[0.000000,0.000000,1.000000,-0.950000],[0.000000,0.000000,0.000000,1.000000]]" ifc:matrix3="[[20.000000,0.000000,19.258787],[0.000000,20.000000,422.405824],[0.000000,0.000000,1.000000]]">
        <g id="product-a831c9d6-d7d4-453c-83d4-6f4f949371e1" class="IfcFurniture material-null projection" ifc:name="Furniture" ifc:guid="2eCSdMrzH5F8FKRq_Kat7X">
            <path d="M201.553,64.0755 L160.953,64.0755"/>
            <path d="M201.553,94.6755 L201.553,64.0755"/>
            <path d="M160.953,94.6755 L201.553,94.6755"/>
            <path d="M160.953,64.0755 L160.953,94.6755"/>
            <path d="M194.195,88.5555 L191.66,94.6755"/>
            <path d="M201.553,88.5555 L194.195,88.5555"/>
            <path d="M194.195,88.5555 L201.553,88.5555"/>
            <path d="M195.463,85.4955 L194.195,88.5555"/>
            <path d="M195.463,70.1955 L195.463,85.4955"/>
            <path d="M201.553,70.1955 L195.463,70.1955"/>
            <path d="M195.463,70.1955 L201.553,70.1955"/>
            <path d="M195.463,64.0755 L195.463,70.1955"/>
        </g>
        <g id="product-6968e6fd-3ba2-4309-971f-da9159931062" class="IfcSanitaryTerminal material-null projection" ifc:name="SanitaryTerminal" ifc:guid="1fQERzEw932PSVsf5Pan1Y">
            <path d="M138.794,84.4347 L136.394,84.4347"/>
            <path d="M136.579,79.9347 L134.279,79.9347"/>
            <path d="M136.801,79.9598 L136.579,79.9347"/>
            <path d="M137.012,80.0337 L136.801,79.9598"/>
            <path d="M137.202,80.1529 L137.012,80.0337"/>
            <path d="M137.36,80.3112 L137.202,80.1529"/>
            <path d="M137.479,80.5008 L137.36,80.3112"/>
            <path d="M137.553,80.7122 L137.479,80.5008"/>
            <path d="M137.579,80.9347 L137.553,80.7122"/>
            <path d="M137.579,87.9347 L137.579,80.9347"/>
            <path d="M137.553,88.1572 L137.579,87.9347"/>
            <path d="M137.479,88.3686 L137.553,88.1572"/>
            <path d="M137.36,88.5582 L137.479,88.3686"/>
            <path d="M137.202,88.7165 L137.36,88.5582"/>
            <path d="M137.012,88.8357 L137.202,88.7165"/>
            <path d="M136.801,88.9096 L137.012,88.8357"/>
            <path d="M136.579,88.9347 L136.801,88.9096"/>
            <path d="M134.279,88.9347 L136.579,88.9347"/>
            <path d="M133.611,88.8595 L134.279,88.9347"/>
            <path d="M132.977,88.6376 L133.611,88.8595"/>
            <path d="M132.408,88.2802 L132.977,88.6376"/>
            <path d="M131.933,87.8052 L132.408,88.2802"/>
            <path d="M131.576,87.2364 L131.933,87.8052"/>
            <path d="M131.354,86.6023 L131.576,87.2364"/>
            <path d="M131.279,85.9347 L131.354,86.6023"/>
            <path d="M131.279,82.9347 L131.279,85.9347"/>
            <path d="M131.354,82.2672 L131.279,82.9347"/>
            <path d="M131.576,81.6331 L131.354,82.2672"/>
            <path d="M131.933,81.0642 L131.576,81.6331"/>
            <path d="M132.408,80.5892 L131.933,81.0642"/>
            <path d="M132.977,80.2318 L132.408,80.5892"/>
            <path d="M133.611,80.0099 L132.977,80.2318"/>
            <path d="M134.279,79.9347 L133.611,80.0099"/>
            <path d="M136.579,79.9347 L134.279,79.9347"/>
            <path d="M138.469,79.4347 L131.469,79.4347"/>
            <path d="M138.691,79.4598 L138.469,79.4347"/>
            <path d="M138.902,79.5337 L138.691,79.4598"/>
            <path d="M139.092,79.6529 L138.902,79.5337"/>
            <path d="M139.25,79.8112 L139.092,79.6529"/>
            <path d="M139.369,80.0008 L139.25,79.8112"/>
            <path d="M139.443,80.2122 L139.369,80.0008"/>
            <path d="M139.469,80.4347 L139.443,80.2122"/>
            <path d="M139.443,88.6572 L139.469,88.4347"/>
            <path d="M139.369,88.8686 L139.443,88.6572"/>
            <path d="M139.25,89.0582 L139.369,88.8686"/>
            <path d="M139.092,89.2165 L139.25,89.0582"/>
            <path d="M138.902,89.3357 L139.092,89.2165"/>
            <path d="M138.691,89.4096 L138.902,89.3357"/>
            <path d="M138.469,89.4347 L138.691,89.4096"/>
            <path d="M131.469,89.4347 L138.469,89.4347"/>
            <path d="M131.246,89.4096 L131.469,89.4347"/>
            <path d="M131.035,89.3357 L131.246,89.4096"/>
            <path d="M130.845,89.2166 L131.035,89.3357"/>
            <path d="M130.687,89.0582 L130.845,89.2166"/>
            <path d="M130.568,88.8686 L130.687,89.0582"/>
            <path d="M130.494,88.6572 L130.568,88.8686"/>
            <path d="M130.469,88.4347 L130.494,88.6572"/>
            <path d="M130.469,80.4347 L130.469,88.4347"/>
            <path d="M130.494,80.2122 L130.469,80.4347"/>
            <path d="M130.568,80.0008 L130.494,80.2122"/>
            <path d="M130.687,79.8112 L130.568,80.0008"/>
            <path d="M130.845,79.6529 L130.687,79.8112"/>
            <path d="M131.035,79.5338 L130.845,79.6529"/>
            <path d="M131.246,79.4598 L131.035,79.5338"/>
            <path d="M131.469,79.4347 L131.246,79.4598"/>
            <path d="M138.469,79.4347 L131.469,79.4347"/>
        </g>
        <g id="product-fcad22f8-37c2-41ff-b926-d382707ce8d9" class="IfcDoor material-null projection" ifc:name="Door" ifc:guid="3yhIBuDy91$xacqu9mVEZP">
            <path d="M124.869,93.0757 L107.869,93.0757"/>
            <path d="M124.869,92.3757 L124.869,93.0757"/>
            <path d="M107.869,92.3757 L124.869,92.3757"/>
            <path d="M107.869,93.0757 L107.869,92.3757"/>
            <path d="M106.869,92.5757 L106.869,93.5757"/>
            <path d="M107.369,92.5757 L106.869,92.5757"/>
            <path d="M107.369,93.0757 L107.369,92.5757"/>
            <path d="M107.869,93.0757 L107.369,93.0757"/>
            <path d="M107.869,93.5757 L107.869,93.0757"/>
            <path d="M106.869,76.5757 L106.869,75.5757"/>
            <path d="M107.369,76.5757 L106.869,76.5757"/>
            <path d="M107.369,76.0757 L107.369,76.5757"/>
            <path d="M107.869,76.0757 L107.369,76.0757"/>
            <path d="M107.869,75.5757 L107.869,76.0757"/>
            <path d="M111.185,76.3889 L107.869,76.0757"/>
            <path d="M114.374,77.3165 L111.185,76.3889"/>
            <path d="M117.861,79.1888 L114.374,77.3165"/>
            <path d="M120.795,81.7897 L117.861,79.1888"/>
            <path d="M123.016,84.9757 L120.795,81.7897"/>
            <path d="M124.399,88.5706 L123.016,84.9757"/>
            <path d="M124.869,92.3757 L124.399,88.5706"/>
        </g>
        <g id="product-2aa09409-a50f-4677-a43b-d0363b5c3208" class="IfcWindow material-null projection" ifc:name="Window.013" ifc:guid="0ge9G9fGz6TwGxq3OxN388">
            <path d="M22.8087,189.906 L23.5087,189.906"/>
            <path d="M22.8087,190.606 L22.8087,189.906"/>
            <path d="M23.5087,190.606 L22.8087,190.606"/>
            <path d="M23.5087,189.906 L23.5087,190.606"/>
            <path d="M22.8087,287.506 L23.5087,287.506"/>
            <path d="M22.8087,286.806 L22.8087,287.506"/>
            <path d="M23.5087,286.806 L22.8087,286.806"/>
            <path d="M23.5087,287.506 L23.5087,286.806"/>
            <path d="M24.3087,190.406 L24.3087,189.406"/>
            <path d="M23.5087,190.406 L24.3087,190.406"/>
            <path d="M23.5087,189.906 L23.5087,190.406"/>
            <path d="M23.3087,189.906 L23.5087,189.906"/>
            <path d="M23.3087,189.406 L23.3087,189.906"/>
            <path d="M24.3087,287.006 L24.3087,288.006"/>
            <path d="M23.5087,287.006 L24.3087,287.006"/>
            <path d="M23.5087,287.506 L23.5087,287.006"/>
            <path d="M23.3087,287.506 L23.5087,287.506"/>
            <path d="M23.3087,288.006 L23.3087,287.506"/>
            <path d="M23.1587,286.806 L23.1587,190.606"/>
            <path d="M22.8087,286.806 L22.8087,190.606"/>
            <path d="M23.5087,286.806 L23.5087,190.606"/>
            <path d="M24.3087,287.006 L24.3087,190.406"/>
        </g>
        <g id="product-7cc61a66-4a25-423e-a8d8-e645efded9e5" class="IfcSanitaryTerminal material-null projection" ifc:name="SanitaryTerminal" ifc:guid="1ynXfcIYL2FgZOvaNltjdb">
            <path d="M136.289,66.729 L134.841,66.8059"/>
            <path d="M139.469,66.9856 L136.289,66.729"/>
            <path d="M136.289,74.729 L139.469,74.4725"/>
            <path d="M134.841,74.6522 L136.289,74.729"/>
            <path d="M133.449,74.4246 L134.841,74.6522"/>
            <path d="M132.791,74.2567 L133.449,74.4246"/>
            <path d="M132.166,74.0549 L132.791,74.2567"/>
            <path d="M131.581,73.8211 L132.166,74.0549"/>
            <path d="M131.042,73.5575 L131.581,73.8211"/>
            <path d="M130.553,73.2666 L131.042,73.5575"/>
            <path d="M130.119,72.9513 L130.553,73.2666"/>
            <path d="M129.745,72.6146 L130.119,72.9513"/>
            <path d="M129.433,72.2598 L129.745,72.6146"/>
            <path d="M129.188,71.8902 L129.433,72.2598"/>
            <path d="M129.011,71.5094 L129.188,71.8902"/>
            <path d="M128.904,71.1211 L129.011,71.5094"/>
            <path d="M128.869,70.729 L128.904,71.1211"/>
            <path d="M128.904,70.337 L128.869,70.729"/>
            <path d="M129.011,69.9487 L128.904,70.337"/>
            <path d="M129.188,69.5679 L129.011,69.9487"/>
            <path d="M129.433,69.1983 L129.188,69.5679"/>
            <path d="M129.745,68.8435 L129.433,69.1983"/>
            <path d="M130.119,68.5068 L129.745,68.8435"/>
            <path d="M130.553,68.1915 L130.119,68.5068"/>
            <path d="M131.042,67.9006 L130.553,68.1915"/>
            <path d="M131.581,67.637 L131.042,67.9006"/>
            <path d="M132.166,67.4032 L131.581,67.637"/>
            <path d="M132.791,67.2014 L132.166,67.4032"/>
            <path d="M133.449,67.0335 L132.791,67.2014"/>
            <path d="M134.841,66.8059 L133.449,67.0335"/>
            <path d="M136.683,68.5106 L136.988,68.5924"/>
            <path d="M132.516,68.5106 L136.683,68.5106"/>
            <path d="M131.616,68.6795 L132.516,68.5106"/>
            <path d="M130.853,69.1604 L131.616,68.6795"/>
            <path d="M130.343,69.8801 L130.853,69.1604"/>
            <path d="M130.164,70.729 L130.343,69.8801"/>
            <path d="M130.343,71.578 L130.164,70.729"/>
            <path d="M130.853,72.2977 L130.343,71.578"/>
            <path d="M131.616,72.7786 L130.853,72.2977"/>
            <path d="M132.516,72.9475 L131.616,72.7786"/>
            <path d="M136.683,72.9475 L132.516,72.9475"/>
            <path d="M136.988,72.8657 L136.683,72.9475"/>
            <path d="M137.211,72.6424 L136.988,72.8657"/>
            <path d="M137.293,72.3374 L137.211,72.6424"/>
            <path d="M137.293,69.1207 L137.293,72.3374"/>
            <path d="M137.211,68.8157 L137.293,69.1207"/>
            <path d="M136.988,68.5924 L137.211,68.8157"/>
        </g>
        <g id="product-35f5037b-c804-4131-b8b6-77f29b6b37dc" class="IfcVehicle material-null projection" ifc:name="Vehicle" ifc:guid="0rzGDxo0H1CRYsT$ARQpVS">
            <path d="M134.973,197.221 L129.905,192.953"/>
            <path d="M132.533,193.141 L134.973,197.221"/>
            <path d="M128.45,190.139 L132.533,193.141"/>
            <path d="M123.382,190.139 L128.45,190.139"/>
            <path d="M123.382,191.218 L123.382,190.139"/>
            <path d="M126.479,191.218 L123.382,191.218"/>
            <path d="M129.905,192.953 L126.479,191.218"/>
            <path d="M42.2246,192.883 L41.5851,194.761"/>
            <path d="M44.3466,193.605 L42.2246,192.883"/>
            <path d="M45.8409,195.1 L44.3466,193.605"/>
            <path d="M45.8409,218.039 L45.8409,195.1"/>
            <path d="M44.3466,219.534 L45.8409,218.039"/>
            <path d="M42.2246,220.256 L44.3466,219.534"/>
            <path d="M41.5851,218.378 L42.2246,220.256"/>
            <path d="M41.5851,194.761 L41.5851,218.378"/>
            <path d="M46.9581,196.43 L46.9581,216.709"/>
            <path d="M70.0952,196.43 L46.9581,196.43"/>
            <path d="M88.4344,195.285 L70.0952,196.43"/>
            <path d="M100.772,194.055 L88.4344,195.285"/>
            <path d="M101.46,198.316 L100.772,194.055"/>
            <path d="M101.46,214.823 L101.46,198.316"/>
            <path d="M100.772,219.085 L101.46,214.823"/>
            <path d="M88.4344,217.854 L100.772,219.085"/>
            <path d="M70.0952,216.709 L88.4344,217.854"/>
            <path d="M46.9581,216.709 L70.0952,216.709"/>
            <path d="M112.944,219.781 L103.717,219.112"/>
            <path d="M114.895,219.781 L112.944,219.781"/>
            <path d="M115.739,218.443 L114.895,219.781"/>
            <path d="M116.728,206.57 L115.739,218.443"/>
            <path d="M115.739,194.696 L116.728,206.57"/>
            <path d="M114.895,193.358 L115.739,194.696"/>
            <path d="M112.944,193.358 L114.895,193.358"/>
            <path d="M103.717,194.027 L112.944,193.358"/>
            <path d="M102.483,194.69 L103.717,194.027"/>
            <path d="M102.264,196.108 L102.483,194.69"/>
            <path d="M102.966,206.57 L102.264,196.108"/>
            <path d="M102.264,217.031 L102.966,206.57"/>
            <path d="M102.483,218.449 L102.264,217.031"/>
            <path d="M103.717,219.112 L102.483,218.449"/>
            <path d="M42.4075,188.278 L41.5934,188.333"/>
            <path d="M125.857,188.278 L42.4075,188.278"/>
            <path d="M127.485,188.387 L125.857,188.278"/>
            <path d="M129.047,188.706 L127.485,188.387"/>
            <path d="M130.528,189.221 L129.047,188.706"/>
            <path d="M131.913,189.916 L130.528,189.221"/>
            <path d="M133.19,190.778 L131.913,189.916"/>
            <path d="M134.342,191.793 L133.19,190.778"/>
            <path d="M135.356,192.945 L134.342,191.793"/>
            <path d="M136.218,194.221 L135.356,192.945"/>
            <path d="M136.914,195.607 L136.218,194.221"/>
            <path d="M137.428,197.088 L136.914,195.607"/>
            <path d="M137.747,198.649 L137.428,197.088"/>
            <path d="M137.857,200.278 L137.747,198.649"/>
            <path d="M137.857,212.861 L137.857,200.278"/>
            <path d="M137.747,214.49 L137.857,212.861"/>
            <path d="M137.428,216.051 L137.747,214.49"/>
            <path d="M136.914,217.532 L137.428,216.051"/>
            <path d="M136.218,218.918 L136.914,217.532"/>
            <path d="M135.356,220.194 L136.218,218.918"/>
            <path d="M134.342,221.347 L135.356,220.194"/>
            <path d="M133.19,222.361 L134.342,221.347"/>
            <path d="M131.913,223.223 L133.19,222.361"/>
            <path d="M130.528,223.918 L131.913,223.223"/>
            <path d="M129.047,224.433 L130.528,223.918"/>
            <path d="M127.485,224.752 L129.047,224.433"/>
            <path d="M125.857,224.861 L127.485,224.752"/>
            <path d="M42.4075,224.861 L125.857,224.861"/>
            <path d="M41.5933,224.807 L42.4075,224.861"/>
            <path d="M40.8125,224.647 L41.5933,224.807"/>
            <path d="M40.072,224.39 L40.8125,224.647"/>
            <path d="M39.3792,224.042 L40.072,224.39"/>
            <path d="M38.7411,223.611 L39.3792,224.042"/>
            <path d="M38.1649,223.104 L38.7411,223.611"/>
            <path d="M37.6577,222.528 L38.1649,223.104"/>
            <path d="M37.2267,221.89 L37.6577,222.528"/>
            <path d="M36.879,221.197 L37.2267,221.89"/>
            <path d="M36.6218,220.456 L36.879,221.197"/>
            <path d="M36.4623,219.676 L36.6218,220.456"/>
            <path d="M36.4075,218.861 L36.4623,219.676"/>
            <path d="M36.4075,194.278 L36.4075,218.861"/>
            <path d="M36.4623,193.464 L36.4075,194.278"/>
            <path d="M36.6218,192.683 L36.4623,193.464"/>
            <path d="M36.879,191.942 L36.6218,192.683"/>
            <path d="M37.2267,191.249 L36.879,191.942"/>
            <path d="M37.6577,190.611 L37.2267,191.249"/>
            <path d="M38.1649,190.035 L37.6577,190.611"/>
            <path d="M38.7411,189.528 L38.1649,190.035"/>
            <path d="M39.3792,189.097 L38.7411,189.528"/>
            <path d="M40.072,188.749 L39.3792,189.097"/>
            <path d="M40.8125,188.492 L40.072,188.749"/>
            <path d="M41.5934,188.333 L40.8125,188.492"/>
            <path d="M134.973,215.918 L134.973,197.221"/>
            <path d="M132.533,219.998 L134.973,215.918"/>
            <path d="M128.45,223 L132.533,219.998"/>
            <path d="M123.382,223 L128.45,223"/>
            <path d="M123.382,221.921 L123.382,223"/>
            <path d="M126.479,221.921 L123.382,221.921"/>
            <path d="M129.905,220.186 L126.479,221.921"/>
            <path d="M134.973,215.918 L129.905,220.186"/>
            <path d="M88.8653,190.144 L87.7755,193.455"/>
            <path d="M88.8653,188.278 L88.8653,190.144"/>
            <path d="M72.0734,219.684 L87.7755,219.684"/>
            <path d="M68.2371,222.649 L72.0734,219.684"/>
            <path d="M67.714,224.861 L68.2371,222.649"/>
            <path d="M105.658,227.81 L106.097,224.861"/>
            <path d="M107.333,227.508 L105.658,227.81"/>
            <path d="M109.267,224.861 L107.333,227.508"/>
            <path d="M109.267,222.603 L109.267,224.861"/>
            <path d="M107.829,221.165 L109.267,222.603"/>
            <path d="M87.7755,219.684 L107.829,221.165"/>
            <path d="M88.8653,222.995 L87.7755,219.684"/>
            <path d="M88.8653,224.861 L88.8653,222.995"/>
            <path d="M68.2371,190.49 L67.714,188.278"/>
            <path d="M72.0734,193.455 L68.2371,190.49"/>
            <path d="M87.7755,193.455 L72.0734,193.455"/>
            <path d="M107.829,191.974 L87.7755,193.455"/>
            <path d="M109.267,190.536 L107.829,191.974"/>
            <path d="M109.267,188.278 L109.267,190.536"/>
            <path d="M107.333,185.631 L109.267,188.278"/>
            <path d="M105.658,185.329 L107.333,185.631"/>
            <path d="M106.097,188.278 L105.658,185.329"/>
        </g>
        <g id="product-09b8c41c-a7f5-4d2f-ae40-92acc265bad6" class="IfcVehicle material-null projection" ifc:name="Vehicle" ifc:guid="09kCGSf$LDBwv0agp2PRhM">
            <path d="M134.973,252.485 L129.905,248.217"/>
            <path d="M132.533,248.405 L134.973,252.485"/>
            <path d="M128.45,245.403 L132.533,248.405"/>
            <path d="M123.382,245.403 L128.45,245.403"/>
            <path d="M123.382,246.482 L123.382,245.403"/>
            <path d="M126.479,246.482 L123.382,246.482"/>
            <path d="M129.905,248.217 L126.479,246.482"/>
            <path d="M42.2246,248.147 L41.5851,250.025"/>
            <path d="M44.3466,248.869 L42.2246,248.147"/>
            <path d="M45.8409,250.363 L44.3466,248.869"/>
            <path d="M45.8409,273.303 L45.8409,250.363"/>
            <path d="M44.3466,274.798 L45.8409,273.303"/>
            <path d="M42.2246,275.52 L44.3466,274.798"/>
            <path d="M41.5851,273.642 L42.2246,275.52"/>
            <path d="M41.5851,250.025 L41.5851,273.642"/>
            <path d="M46.9581,251.694 L46.9581,271.973"/>
            <path d="M70.0952,251.694 L46.9581,251.694"/>
            <path d="M88.4344,250.549 L70.0952,251.694"/>
            <path d="M100.772,249.318 L88.4344,250.549"/>
            <path d="M101.46,253.58 L100.772,249.318"/>
            <path d="M101.46,270.087 L101.46,253.58"/>
            <path d="M100.772,274.348 L101.46,270.087"/>
            <path d="M88.4344,273.118 L100.772,274.348"/>
            <path d="M70.0952,271.973 L88.4344,273.118"/>
            <path d="M46.9581,271.973 L70.0952,271.973"/>
            <path d="M112.944,275.045 L103.717,274.376"/>
            <path d="M114.895,275.045 L112.944,275.045"/>
            <path d="M115.739,273.707 L114.895,275.045"/>
            <path d="M116.728,261.833 L115.739,273.707"/>
            <path d="M115.739,249.96 L116.728,261.833"/>
            <path d="M114.895,248.622 L115.739,249.96"/>
            <path d="M112.944,248.622 L114.895,248.622"/>
            <path d="M103.717,249.291 L112.944,248.622"/>
            <path d="M102.483,249.954 L103.717,249.291"/>
            <path d="M102.264,251.372 L102.483,249.954"/>
            <path d="M102.966,261.833 L102.264,251.372"/>
            <path d="M102.264,272.295 L102.966,261.833"/>
            <path d="M102.483,273.713 L102.264,272.295"/>
            <path d="M103.717,274.376 L102.483,273.713"/>
            <path d="M42.4075,243.542 L41.5934,243.596"/>
            <path d="M125.857,243.542 L42.4075,243.542"/>
            <path d="M127.485,243.651 L125.857,243.542"/>
            <path d="M129.047,243.97 L127.485,243.651"/>
            <path d="M130.528,244.485 L129.047,243.97"/>
            <path d="M131.913,245.18 L130.528,244.485"/>
            <path d="M133.19,246.042 L131.913,245.18"/>
            <path d="M134.342,247.056 L133.19,246.042"/>
            <path d="M135.356,248.209 L134.342,247.056"/>
            <path d="M136.218,249.485 L135.356,248.209"/>
            <path d="M136.914,250.871 L136.218,249.485"/>
            <path d="M137.428,252.352 L136.914,250.871"/>
            <path d="M137.747,253.913 L137.428,252.352"/>
            <path d="M137.857,255.542 L137.747,253.913"/>
            <path d="M137.857,268.125 L137.857,255.542"/>
            <path d="M137.747,269.754 L137.857,268.125"/>
            <path d="M137.428,271.315 L137.747,269.754"/>
            <path d="M136.914,272.796 L137.428,271.315"/>
            <path d="M136.218,274.182 L136.914,272.796"/>
            <path d="M135.356,275.458 L136.218,274.182"/>
            <path d="M134.342,276.61 L135.356,275.458"/>
            <path d="M133.19,277.625 L134.342,276.61"/>
            <path d="M131.913,278.487 L133.19,277.625"/>
            <path d="M130.528,279.182 L131.913,278.487"/>
            <path d="M129.047,279.697 L130.528,279.182"/>
            <path d="M127.485,280.016 L129.047,279.697"/>
            <path d="M125.857,280.125 L127.485,280.016"/>
            <path d="M42.4075,280.125 L125.857,280.125"/>
            <path d="M41.5933,280.07 L42.4075,280.125"/>
            <path d="M40.8125,279.911 L41.5933,280.07"/>
            <path d="M40.072,279.654 L40.8125,279.911"/>
            <path d="M39.3792,279.306 L40.072,279.654"/>
            <path d="M38.7411,278.875 L39.3792,279.306"/>
            <path d="M38.1649,278.368 L38.7411,278.875"/>
            <path d="M37.6577,277.792 L38.1649,278.368"/>
            <path d="M37.2267,277.153 L37.6577,277.792"/>
            <path d="M36.879,276.461 L37.2267,277.153"/>
            <path d="M36.6218,275.72 L36.879,276.461"/>
            <path d="M36.4623,274.939 L36.6218,275.72"/>
            <path d="M36.4075,274.125 L36.4623,274.939"/>
            <path d="M36.4075,249.542 L36.4075,274.125"/>
            <path d="M36.4623,248.727 L36.4075,249.542"/>
            <path d="M36.6218,247.947 L36.4623,248.727"/>
            <path d="M36.879,247.206 L36.6218,247.947"/>
            <path d="M37.2267,246.513 L36.879,247.206"/>
            <path d="M37.6577,245.875 L37.2267,246.513"/>
            <path d="M38.1649,245.299 L37.6577,245.875"/>
            <path d="M38.7411,244.792 L38.1649,245.299"/>
            <path d="M39.3792,244.361 L38.7411,244.792"/>
            <path d="M40.072,244.013 L39.3792,244.361"/>
            <path d="M40.8125,243.756 L40.072,244.013"/>
            <path d="M41.5934,243.596 L40.8125,243.756"/>
            <path d="M134.973,271.182 L134.973,252.485"/>
            <path d="M132.533,275.262 L134.973,271.182"/>
            <path d="M128.45,278.264 L132.533,275.262"/>
            <path d="M123.382,278.264 L128.45,278.264"/>
            <path d="M123.382,277.185 L123.382,278.264"/>
            <path d="M126.479,277.185 L123.382,277.185"/>
            <path d="M129.905,275.45 L126.479,277.185"/>
            <path d="M134.973,271.182 L129.905,275.45"/>
            <path d="M88.8653,245.408 L87.7755,248.719"/>
            <path d="M88.8653,243.542 L88.8653,245.408"/>
            <path d="M72.0734,274.948 L87.7755,274.948"/>
            <path d="M68.2371,277.913 L72.0734,274.948"/>
            <path d="M67.714,280.125 L68.2371,277.913"/>
            <path d="M105.658,283.074 L106.097,280.125"/>
            <path d="M107.333,282.772 L105.658,283.074"/>
            <path d="M109.267,280.125 L107.333,282.772"/>
            <path d="M109.267,277.867 L109.267,280.125"/>
            <path d="M107.829,276.429 L109.267,277.867"/>
            <path d="M87.7755,274.948 L107.829,276.429"/>
            <path d="M88.8653,278.259 L87.7755,274.948"/>
            <path d="M88.8653,280.125 L88.8653,278.259"/>
            <path d="M68.2371,245.754 L67.714,243.542"/>
            <path d="M72.0734,248.719 L68.2371,245.754"/>
            <path d="M87.7755,248.719 L72.0734,248.719"/>
            <path d="M107.829,247.238 L87.7755,248.719"/>
            <path d="M109.267,245.8 L107.829,247.238"/>
            <path d="M109.267,243.542 L109.267,245.8"/>
            <path d="M107.333,240.895 L109.267,243.542"/>
            <path d="M105.658,240.593 L107.333,240.895"/>
            <path d="M106.097,243.542 L105.658,240.593"/>
        </g>
        <g id="product-655300fa-b8d8-42c9-a465-c8633243b586" class="IfcWindow material-null projection" ifc:name="Window" ifc:guid="1bKm3wkDX2oQHbo6CoGxM6">
            <path d="M24.3353,136.905 L24.9353,136.905"/>
            <path d="M24.3353,137.905 L24.3353,136.905"/>
            <path d="M24.9353,137.905 L24.3353,137.905"/>
            <path d="M24.9353,136.905 L24.9353,137.905"/>
            <path d="M24.3353,154.905 L24.9353,154.905"/>
            <path d="M24.3353,153.905 L24.3353,154.905"/>
            <path d="M24.9353,153.905 L24.3353,153.905"/>
            <path d="M24.9353,154.905 L24.9353,153.905"/>
            <path d="M25.3353,135.905 L25.3353,135.905"/>
            <path d="M25.3353,136.905 L25.3353,135.905"/>
            <path d="M24.3353,136.905 L25.3353,136.905"/>
            <path d="M24.3353,135.905 L24.3353,136.905"/>
            <path d="M25.3353,155.905 L25.3353,155.905"/>
            <path d="M25.3353,154.905 L25.3353,155.905"/>
            <path d="M24.3353,154.905 L25.3353,154.905"/>
            <path d="M24.3353,155.905 L24.3353,154.905"/>
            <path d="M24.6353,153.905 L24.6353,137.905"/>
            <path d="M24.3353,153.905 L24.3353,137.905"/>
            <path d="M24.9353,153.905 L24.9353,137.905"/>
            <path d="M25.3353,154.905 L25.3353,136.905"/>
        </g>
        <g id="product-05e30fd6-fe53-4375-9182-9d1fcb9279f7" class="IfcDoor material-null projection" ifc:name="Door" ifc:guid="05um$M$bD3TP62dH$Baddt">
            <path d="M159.469,115.781 L140.469,115.781"/>
            <path d="M159.469,115.081 L159.469,115.781"/>
            <path d="M140.469,115.081 L159.469,115.081"/>
            <path d="M140.469,115.781 L140.469,115.081"/>
            <path d="M139.469,115.281 L139.469,116.281"/>
            <path d="M139.969,115.281 L139.469,115.281"/>
            <path d="M139.969,115.781 L139.969,115.281"/>
            <path d="M140.469,115.781 L139.969,115.781"/>
            <path d="M140.469,116.281 L140.469,115.781"/>
            <path d="M139.469,116.281 L139.469,116.281"/>
            <path d="M139.469,97.2806 L139.469,96.2807"/>
            <path d="M139.969,97.2806 L139.469,97.2806"/>
            <path d="M139.969,96.7806 L139.969,97.2806"/>
            <path d="M140.469,96.7806 L139.969,96.7806"/>
            <path d="M140.469,96.2806 L140.469,96.7806"/>
            <path d="M144.175,97.1323 L140.469,96.7806"/>
            <path d="M147.74,98.1737 L144.175,97.1323"/>
            <path d="M151.636,100.276 L147.74,98.1737"/>
            <path d="M154.916,103.196 L151.636,100.276"/>
            <path d="M157.398,106.773 L154.916,103.196"/>
            <path d="M158.944,110.809 L157.398,106.773"/>
            <path d="M159.469,115.081 L158.944,110.809"/>
        </g>
        <g id="product-a2e00839-0085-44e3-aabb-087e1682aab8" class="IfcWindow material-null projection" ifc:name="Window" ifc:guid="2Yu0Wv08L4uwgx27uMWggu">
            <path d="M143.378,44.0058 L143.378,43.4058"/>
            <path d="M144.378,44.0058 L143.378,44.0058"/>
            <path d="M144.378,43.4058 L144.378,44.0058"/>
            <path d="M143.378,43.4058 L144.378,43.4058"/>
            <path d="M159.378,44.0058 L159.378,43.4058"/>
            <path d="M158.378,44.0058 L159.378,44.0058"/>
            <path d="M158.378,43.4058 L158.378,44.0058"/>
            <path d="M159.378,43.4058 L158.378,43.4058"/>
            <path d="M142.378,42.8058 L142.378,42.8059"/>
            <path d="M143.378,42.8058 L142.378,42.8058"/>
            <path d="M143.378,44.2058 L143.378,42.8058"/>
            <path d="M142.378,44.2058 L143.378,44.2058"/>
            <path d="M159.378,44.0058 L159.378,43.4058"/>
            <path d="M160.378,44.0058 L159.378,44.0058"/>
            <path d="M160.378,43.4058 L160.378,44.0058"/>
            <path d="M159.378,43.4058 L160.378,43.4058"/>
            <path d="M175.378,44.0058 L175.378,43.4058"/>
            <path d="M174.378,44.0058 L175.378,44.0058"/>
            <path d="M174.378,43.4058 L174.378,44.0058"/>
            <path d="M175.378,43.4058 L174.378,43.4058"/>
            <path d="M176.378,42.8058 L176.378,42.8059"/>
            <path d="M175.378,42.8058 L176.378,42.8058"/>
            <path d="M175.378,44.2058 L175.378,42.8058"/>
            <path d="M176.378,44.2058 L175.378,44.2058"/>
            <path d="M158.378,43.7058 L144.378,43.7058"/>
            <path d="M158.378,44.0058 L144.378,44.0058"/>
            <path d="M158.378,43.4058 L144.378,43.4058"/>
            <path d="M159.378,44.2058 L159.378,42.8058"/>
            <path d="M159.378,42.8058 L143.378,42.8058"/>
            <path d="M174.378,43.7058 L160.378,43.7058"/>
            <path d="M174.378,44.0058 L160.378,44.0058"/>
            <path d="M174.378,43.4058 L160.378,43.4058"/>
            <path d="M159.378,44.2058 L159.378,42.8058"/>
            <path d="M175.378,42.8058 L159.378,42.8058"/>
        </g>
        <g id="product-e461d93c-1a79-41f2-a00e-11b509436a07" class="IfcWindow material-null projection" ifc:name="Window" ifc:guid="3aOTay6db1yg0E4RK9Gse7">
            <path d="M109.969,45.3058 L109.969,44.6058"/>
            <path d="M110.669,45.3058 L109.969,45.3058"/>
            <path d="M110.669,44.6058 L110.669,45.3058"/>
            <path d="M109.969,44.6058 L110.669,44.6058"/>
            <path d="M120.969,45.3058 L120.969,44.6058"/>
            <path d="M120.269,45.3058 L120.969,45.3058"/>
            <path d="M120.269,44.6058 L120.269,45.3058"/>
            <path d="M120.969,44.6058 L120.269,44.6058"/>
            <path d="M110.469,43.8058 L109.469,43.8058"/>
            <path d="M110.469,44.6058 L110.469,43.8058"/>
            <path d="M109.969,44.6058 L110.469,44.6058"/>
            <path d="M109.969,44.8058 L109.969,44.6058"/>
            <path d="M109.469,44.8058 L109.969,44.8058"/>
            <path d="M120.469,43.8058 L121.469,43.8058"/>
            <path d="M120.469,44.6058 L120.469,43.8058"/>
            <path d="M120.969,44.6058 L120.469,44.6058"/>
            <path d="M120.969,44.8058 L120.969,44.6058"/>
            <path d="M121.469,44.8058 L120.969,44.8058"/>
            <path d="M120.269,44.9558 L110.669,44.9558"/>
            <path d="M120.269,45.3058 L110.669,45.3058"/>
            <path d="M120.269,44.6058 L110.669,44.6058"/>
            <path d="M120.469,43.8058 L110.469,43.8058"/>
        </g>
        <g id="product-1962d899-6a15-4a8a-b8ca-76b4c4aa3613" class="IfcDoor material-null projection" ifc:name="Door" ifc:guid="0POjYPQXLAYhZAThJ4gZOJ">
            <path d="M83.3685,55.3058 L83.3685,43.8058"/>
            <path d="M84.0685,55.3058 L83.3685,55.3058"/>
            <path d="M84.0685,43.8058 L84.0685,55.3058"/>
            <path d="M83.3685,43.8058 L84.0685,43.8058"/>
            <path d="M106.369,55.3058 L106.369,43.8058"/>
            <path d="M105.669,55.3058 L106.369,55.3058"/>
            <path d="M105.669,43.8058 L105.669,55.3058"/>
            <path d="M106.369,43.8058 L105.669,43.8058"/>
            <path d="M83.8685,42.8058 L82.8685,42.8058"/>
            <path d="M83.8685,43.3058 L83.8685,42.8058"/>
            <path d="M83.3685,43.3058 L83.8685,43.3058"/>
            <path d="M83.3685,43.8058 L83.3685,43.3058"/>
            <path d="M82.8685,43.8058 L83.3685,43.8058"/>
            <path d="M105.869,42.8058 L106.869,42.8058"/>
            <path d="M105.869,43.3058 L105.869,42.8058"/>
            <path d="M106.369,43.3058 L105.869,43.3058"/>
            <path d="M106.369,43.8058 L106.369,43.3058"/>
            <path d="M106.869,43.8058 L106.369,43.8058"/>
            <path d="M94.661,46.0494 L94.8685,43.8058"/>
            <path d="M94.0464,48.2067 L94.661,46.0494"/>
            <path d="M92.8059,50.5654 L94.0464,48.2067"/>
            <path d="M91.0826,52.5505 L92.8059,50.5654"/>
            <path d="M88.9716,54.0524 L91.0826,52.5505"/>
            <path d="M86.5897,54.9881 L88.9716,54.0524"/>
            <path d="M84.0685,55.3058 L86.5897,54.9881"/>
            <path d="M103.589,55.0907 L105.669,55.3058"/>
            <path d="M101.588,54.4534 L103.589,55.0907"/>
            <path d="M99.5747,53.3003 L101.588,54.4534"/>
            <path d="M97.8345,51.7219 L99.5747,53.3003"/>
            <path d="M96.3154,49.5558 L97.8345,51.7219"/>
            <path d="M95.2365,46.7823 L96.3154,49.5558"/>
            <path d="M94.8685,43.8058 L95.2365,46.7823"/>
        </g>
        <g id="product-a15d2d3f-6cde-49b3-a49c-0e7aca17d915" class="IfcDoor material-null projection" ifc:name="Door" ifc:guid="2XNIq$RDv9iwIS3dhA5zaL">
            <path d="M86.8059,152.006 L86.8059,171.006"/>
            <path d="M87.5059,152.006 L86.8059,152.006"/>
            <path d="M87.5059,171.006 L87.5059,152.006"/>
            <path d="M86.8059,171.006 L87.5059,171.006"/>
            <path d="M105.306,172.006 L106.306,172.006"/>
            <path d="M105.306,171.506 L105.306,172.006"/>
            <path d="M105.806,171.506 L105.306,171.506"/>
            <path d="M105.806,171.006 L105.806,171.506"/>
            <path d="M106.306,171.006 L105.806,171.006"/>
            <path d="M87.3059,172.006 L86.3059,172.006"/>
            <path d="M87.3059,171.506 L87.3059,172.006"/>
            <path d="M86.8059,171.506 L87.3059,171.506"/>
            <path d="M86.8059,171.006 L86.8059,171.506"/>
            <path d="M86.3059,171.006 L86.8059,171.006"/>
            <path d="M91.076,152.371 L87.5059,152.006"/>
            <path d="M94.509,153.452 L91.076,152.371"/>
            <path d="M98.2624,155.634 L94.509,153.452"/>
            <path d="M101.421,158.666 L98.2624,155.634"/>
            <path d="M103.811,162.38 L101.421,158.666"/>
            <path d="M105.3,166.57 L103.811,162.38"/>
            <path d="M105.806,171.006 L105.3,166.57"/>
        </g>
        <g id="product-2b6f8e3b-bd15-4f17-bed5-6a48cfe47f1a" class="IfcWindow material-null projection" ifc:name="Window" ifc:guid="0hRuuxlHLF5xxLQaZFv7yQ">
            <path d="M26.6685,44.8058 L26.6685,43.8058"/>
            <path d="M28.6685,44.8058 L26.6685,44.8058"/>
            <path d="M28.6685,43.8058 L28.6685,44.8058"/>
            <path d="M26.6685,43.8058 L28.6685,43.8058"/>
            <path d="M45.6685,44.8058 L45.6685,43.8058"/>
            <path d="M43.6685,44.8058 L45.6685,44.8058"/>
            <path d="M43.6685,43.8058 L43.6685,44.8058"/>
            <path d="M45.6685,43.8058 L43.6685,43.8058"/>
            <path d="M25.2685,42.8058 L25.2685,42.8073"/>
            <path d="M26.6685,42.8058 L25.2685,42.8058"/>
            <path d="M26.6685,44.8058 L26.6685,42.8058"/>
            <path d="M25.3353,44.8058 L26.6685,44.8058"/>
            <path d="M45.6685,44.8058 L45.6685,43.8058"/>
            <path d="M47.6685,44.8058 L45.6685,44.8058"/>
            <path d="M47.6685,43.8058 L47.6685,44.8058"/>
            <path d="M45.6685,43.8058 L47.6685,43.8058"/>
            <path d="M64.2685,44.8058 L64.2685,43.8058"/>
            <path d="M62.2685,44.8058 L64.2685,44.8058"/>
            <path d="M62.2685,43.8058 L62.2685,44.8058"/>
            <path d="M64.2685,43.8058 L62.2685,43.8058"/>
            <path d="M64.2685,44.8058 L64.2685,43.8058"/>
            <path d="M66.2685,44.8058 L64.2685,44.8058"/>
            <path d="M66.2685,43.8058 L66.2685,44.8058"/>
            <path d="M64.2685,43.8058 L66.2685,43.8058"/>
            <path d="M81.4685,44.8058 L81.4685,43.8058"/>
            <path d="M79.4685,44.8058 L81.4685,44.8058"/>
            <path d="M79.4685,43.8058 L79.4685,44.8058"/>
            <path d="M81.4685,43.8058 L79.4685,43.8058"/>
            <path d="M82.8685,42.8058 L82.8685,44.8058"/>
            <path d="M81.4685,42.8058 L82.8685,42.8058"/>
            <path d="M81.4685,44.8058 L81.4685,42.8058"/>
            <path d="M82.8685,44.8058 L81.4685,44.8058"/>
            <path d="M43.6685,44.3058 L28.6685,44.3058"/>
            <path d="M43.6685,44.8058 L28.6685,44.8058"/>
            <path d="M43.6685,43.8058 L28.6685,43.8058"/>
            <path d="M45.6685,44.8058 L45.6685,42.8058"/>
            <path d="M45.6685,42.8058 L26.6685,42.8058"/>
            <path d="M62.2685,44.3058 L47.6685,44.3058"/>
            <path d="M62.2685,44.8058 L47.6685,44.8058"/>
            <path d="M62.2685,43.8058 L47.6685,43.8058"/>
            <path d="M45.6685,44.8058 L45.6685,42.8058"/>
            <path d="M64.2685,44.8058 L64.2685,42.8058"/>
            <path d="M64.2685,42.8058 L45.6685,42.8058"/>
            <path d="M79.4685,44.3058 L66.2685,44.3058"/>
            <path d="M79.4685,44.8058 L66.2685,44.8058"/>
            <path d="M79.4685,43.8058 L66.2685,43.8058"/>
            <path d="M64.2685,44.8058 L64.2685,42.8058"/>
            <path d="M81.4685,42.8058 L64.2685,42.8058"/>
        </g>
        <g id="product-e4724d41-4ed2-4d56-970a-c12c02bb1ec1" class="IfcSlab material-null projection" ifc:name="Slab" ifc:guid="3aSar1Jj9DLfSAmIm2knx1">
            <path d="M206.669,120.006 L142.069,120.006"/>
            <path d="M206.669,42.8074 L206.669,47.4058"/>
            <path d="M206.669,80.1522 L206.669,120.006"/>
            <path d="M82.8685,42.8074 L82.8685,42.8074"/>
            <path d="M83.8685,42.8074 L105.869,42.8074"/>
            <path d="M20.7353,288.006 L20.7353,189.406"/>
            <path d="M20.7353,165.006 L20.7353,47.4073"/>
            <path d="M148.459,296.606 L143.859,296.606"/>
            <path d="M142.069,120.006 L142.069,167.406"/>
        </g>
        <g id="product-c0882283-824b-41fa-a1d0-6e2271eb9e04" class="IfcSlab material-Pavement projection" ifc:name="Slab" ifc:guid="30Y2A3Waj1_g7GRY9nwvu4">
            <path d="M-104.008,296.619 L20.7087,297.171"/>
            <path d="M-101.561,179.957 L-104.008,296.619"/>
            <path d="M20.7087,180.476 L-101.561,179.957"/>
            <path d="M20.7087,297.171 L20.7087,296.606"/>
            <path d="M20.7087,288.006 L20.7087,189.406"/>
        </g>
        <g id="product-40d97956-0e0c-45fb-8fae-5c596996bd39" class="IfcColumn material-null projection" ifc:name="Column.002" ifc:guid="10sNbM3Wn5_u_kN5bfbhqv">
            <path d="M429.733,47.4073 L434.333,47.4073"/>
            <path d="M434.333,47.4073 L434.333,42.8073"/>
            <path d="M434.333,42.8073 L429.733,42.8073"/>
            <path d="M429.733,42.8073 L429.733,47.4073"/>
        </g>
        <g id="product-9002984a-5911-4e3e-bc8c-1a24ea0ab0a8" class="IfcColumn material-null projection" ifc:name="Column.002" ifc:guid="2G0fXAMH5EFhoC6YJg2h2e">
            <path d="M123.935,47.4073 L128.535,47.4073"/>
            <path d="M128.535,47.4073 L128.535,42.8073"/>
            <path d="M128.535,42.8073 L123.935,42.8073"/>
            <path d="M123.935,42.8073 L123.935,47.4073"/>
        </g>
        <g id="product-8168b455-bded-42d9-be73-98cf275c1e3f" class="IfcColumn material-null projection" ifc:name="Column.003" ifc:guid="21QBHLlUr2sRvpcCydN1u$">
            <path d="M123.935,172.006 L128.535,172.006"/>
            <path d="M128.535,172.006 L128.535,167.406"/>
            <path d="M128.535,167.406 L123.935,167.406"/>
            <path d="M123.935,167.406 L123.935,172.006"/>
        </g>
        <g id="product-28310aff-b6e4-4dd2-9f10-12e92b6facb1" class="IfcColumn material-null projection" ifc:name="Column" ifc:guid="0eCGh$jkHDqfyG4kahRwon">
            <path d="M326.535,172.006 L331.135,172.006"/>
            <path d="M331.135,172.006 L331.135,167.406"/>
            <path d="M331.135,167.406 L326.535,167.406"/>
            <path d="M326.535,167.406 L326.535,172.006"/>
        </g>
        <g id="product-174237a4-d2ef-4b64-bd32-65e65cfc4c1d" class="IfcColumn material-null projection" ifc:name="Column" ifc:guid="0NGZUaqkzBPBqoPUPS$4mT">
            <path d="M429.733,172.006 L434.333,172.006"/>
            <path d="M434.333,172.006 L434.333,167.406"/>
            <path d="M434.333,167.406 L429.733,167.406"/>
            <path d="M429.733,167.406 L429.733,172.006"/>
        </g>
        <g id="product-f379cfa3-fee8-4e70-8c1a-683f26d078d5" class="IfcColumn material-null projection" ifc:name="Column.003" ifc:guid="3pUS_Z$kXES8mQQ3ycq7ZL">
            <path d="M176.378,47.4059 L180.978,47.4059"/>
            <path d="M180.978,47.4059 L180.978,42.8059"/>
            <path d="M180.978,42.8059 L176.378,42.8059"/>
            <path d="M176.378,42.8059 L176.378,47.4059"/>
        </g>
        <g id="product-b47a9fa8-ce5f-4f59-9e29-a3a123897ef5" class="IfcColumn material-null projection" ifc:name="Column.002" ifc:guid="2qUf_epbzFMPufew4ZYNxr">
            <path d="M20.7353,47.4073 L25.3353,47.4073"/>
            <path d="M25.3353,47.4073 L25.3353,42.8073"/>
            <path d="M25.3353,42.8073 L20.7353,42.8073"/>
            <path d="M20.7353,42.8073 L20.7353,47.4073"/>
        </g>
        <g id="product-a9f2cd66-5fcd-4235-8c43-eec11174a236" class="IfcColumn material-null projection" ifc:name="Column.003" ifc:guid="2fyircNyr2DOn3xi4HTA8s">
            <path d="M20.7353,165.006 L25.3353,165.006"/>
            <path d="M25.3353,165.006 L25.3353,160.406"/>
            <path d="M25.3353,160.406 L20.7353,160.406"/>
            <path d="M20.7353,160.406 L20.7353,165.006"/>
        </g>
        <g id="product-584479dd-8c05-4164-8ff0-7808694cbcff" class="IfcColumn material-null projection" ifc:name="Column.003" ifc:guid="1OH7dTZ0L1P8$mU0XfJBp$">
            <path d="M326.535,47.4059 L331.135,47.4059"/>
            <path d="M331.135,47.4059 L331.135,42.8059"/>
            <path d="M331.135,42.8059 L326.535,42.8059"/>
            <path d="M326.535,42.8059 L326.535,47.4059"/>
        </g>
        <g id="product-1fa4b83c-149c-489d-bcbf-1bd3b3dd692c" class="IfcColumn material-null projection" ifc:name="Column" ifc:guid="0VfBWy59n8dRo$6zEptMai">
            <path d="M149.562,222.006 L154.162,222.006"/>
            <path d="M154.162,222.006 L154.162,217.406"/>
            <path d="M154.162,217.406 L149.562,217.406"/>
            <path d="M149.562,217.406 L149.562,222.006"/>
        </g>
        <g id="product-45f2a825-a624-463e-a88c-bea9123a079a" class="IfcColumn material-null projection" ifc:name="Column" ifc:guid="15ygWbfYH6FgYClgaIEWUQ">
            <path d="M280.608,222.006 L285.208,222.006"/>
            <path d="M285.208,222.006 L285.208,217.406"/>
            <path d="M285.208,217.406 L280.608,217.406"/>
            <path d="M280.608,217.406 L280.608,222.006"/>
        </g>
        <g id="product-e4a45c5a-2b00-4ab8-9048-6966f7a6b5b6" class="IfcColumn material-null projection" ifc:name="Column.003" ifc:guid="3af5nQAm1Ak918QMRtfhMs">
            <path d="M176.378,172.006 L180.978,172.006"/>
            <path d="M180.978,172.006 L180.978,167.406"/>
            <path d="M180.978,167.406 L176.378,167.406"/>
            <path d="M176.378,167.406 L176.378,172.006"/>
        </g>
        <g id="product-34ad9ad9-b02f-4ec1-b215-c477f4ad11fb" class="IfcColumn material-null projection" ifc:name="Column.003" ifc:guid="0qhPhPi2zEmR8Ln7VqhH7x">
            <path d="M273.925,172.006 L278.525,172.006"/>
            <path d="M278.525,172.006 L278.525,167.406"/>
            <path d="M278.525,167.406 L273.925,167.406"/>
            <path d="M273.925,167.406 L273.925,172.006"/>
        </g>
        <g id="product-441ffd69-7a39-4c17-b44e-79e111efb4cd" class="IfcColumn material-null projection" ifc:name="Column.003" ifc:guid="147$rfUZbC5xHEUU4HxxJD">
            <path d="M273.925,47.4059 L278.525,47.4059"/>
            <path d="M278.525,47.4059 L278.525,42.8059"/>
            <path d="M278.525,42.8059 L273.925,42.8059"/>
            <path d="M273.925,42.8059 L273.925,47.4059"/>
        </g>
        <g id="product-f2d2d7ee-d7b6-42b9-822b-f15f81974e37" class="IfcSlab material-null projection" ifc:name="Slab" ifc:guid="3oqjVkrxP2kO8hyL_1bqut">
            <path d="M206.669,42.8073 L206.669,2.80586"/>
            <path d="M82.8685,42.8073 L82.8685,42.8073"/>
            <path d="M83.8685,42.8073 L105.869,42.8073"/>
            <path d="M206.669,42.8073 L206.669,42.8073"/>
            <path d="M206.669,2.80586 L20.7353,2.80582"/>
        </g>
        <g id="product-4edb00ca-5cd0-4c48-84c4-a74aa2db4a31" class="IfcWall material-brick projection" ifc:name="Wall" ifc:guid="1Esm3AND1CI8J4fqgYsqen">
            <path d="M434.594,47.4073 L434.594,167.406"/>
            <path d="M429.994,47.4073 L434.594,47.4073"/>
            <path d="M429.994,167.406 L429.994,47.4073"/>
            <path d="M434.594,167.406 L429.994,167.406"/>
        </g>
        <g id="product-1325c11c-d6f9-4159-8daa-5f944903e5ec" class="IfcWall material-brick projection" ifc:name="Wall" ifc:guid="0J9S4Srlb1MOsgNvH90_Ni">
            <path d="M86.3059,172.006 L86.3059,167.406"/>
            <path d="M86.3059,167.406 L25.3087,167.406"/>
            <path d="M25.3087,167.406 L25.3087,172.006"/>
            <path d="M86.3059,172.006 L25.3087,172.006"/>
            <path d="M106.306,167.406 L106.306,172.006"/>
            <path d="M184.414,172.006 L106.306,172.006"/>
            <path d="M184.414,167.406 L184.414,172.006"/>
            <path d="M184.414,167.406 L106.306,167.406"/>
        </g>
        <g id="product-c007d773-2e21-4669-b96b-95cab4f1ddcd" class="IfcWall material-brick projection" ifc:name="Wall" ifc:guid="301zTpBY56QRbhbSgqyTtD">
            <path d="M206.669,120.006 L142.376,120.006"/>
            <path d="M206.669,117.406 L206.669,120.006"/>
            <path d="M142.376,117.406 L206.669,117.406"/>
            <path d="M142.376,120.006 L142.376,117.406"/>
        </g>
        <g id="product-1ba7e18e-743b-4b04-afdd-3be65c2c898b" class="IfcWall material-brick projection" ifc:name="Wall" ifc:guid="0Rf_6ET3jB1A$TE_PSB8cB">
            <path d="M202.069,117.406 L202.069,47.4058"/>
            <path d="M206.669,117.406 L202.069,117.406"/>
            <path d="M206.669,47.4058 L206.669,117.406"/>
            <path d="M202.069,47.4058 L206.669,47.4058"/>
        </g>
        <g id="product-823d51c0-33e2-41fc-972c-f0433daa27df" class="IfcFurniture material-null projection" ifc:name="Furniture" ifc:guid="22FL70C_91$9Siy4CzgYVV">
            <path d="M86.3059,155.406 L86.3059,167.406"/>
            <path d="M25.3087,165.006 L25.3087,167.406"/>
            <path d="M25.3353,155.406 L86.3059,155.406"/>
        </g>
        <g id="product-389ab6fb-fef2-4811-8581-c1657a8290cf" class="IfcWall material-brick projection" ifc:name="Wall" ifc:guid="0uchRx$l984OM1mMLwWf3F">
            <path d="M66.9606,80.0043 L25.3353,80.0043"/>
            <path d="M66.9606,77.4043 L66.9606,80.0043"/>
            <path d="M25.3353,77.4043 L66.9606,77.4043"/>
            <path d="M25.3353,80.0043 L25.3353,77.4043"/>
        </g>
        <g id="product-e64ad32e-789f-4450-a4c3-b4f0e04122f0" class="IfcSlab material-null projection" ifc:name="Slab" ifc:guid="3cIjCkU9z4KAJ3jF3WGIBm">
            <path d="M45.3353,100.004 L45.3353,80.0043"/>
            <path d="M66.8118,100.004 L45.3353,100.004"/>
            <path d="M66.8118,80.0043 L66.8118,100.004"/>
        </g>
        <g id="product-0269c7a8-84f2-46f7-ad86-d5c3ba637ecb" class="IfcWall material-brick projection" ifc:name="Wall" ifc:guid="02QSUeXF96zws6rSEwOtxB">
            <path d="M206.669,42.8059 L429.994,42.806"/>
            <path d="M206.669,47.4059 L206.669,42.8059"/>
            <path d="M429.994,47.406 L206.669,47.4059"/>
            <path d="M429.994,42.806 L429.994,47.406"/>
        </g>
        <g id="product-17869aac-24b7-45ff-b1a7-d2cf4322651a" class="IfcWall material-brick projection" ifc:name="Wall" ifc:guid="0NXfgi9BT5$x6dqiz38cKQ">
            <path d="M139.469,96.2806 L142.069,96.2806"/>
            <path d="M142.069,96.2806 L142.069,47.4058"/>
            <path d="M142.069,47.4058 L139.469,47.4058"/>
            <path d="M139.469,96.2806 L139.469,47.4058"/>
            <path d="M142.069,116.281 L139.469,116.281"/>
            <path d="M139.469,167.406 L139.469,116.281"/>
            <path d="M142.069,167.406 L139.469,167.406"/>
            <path d="M142.069,167.406 L142.069,116.281"/>
        </g>
        <g id="product-3d9e183f-99e5-4132-96a2-8ce78881d33a" class="IfcStairFlight material-null projection" ifc:name="StairFlight.001" ifc:guid="0zdXW$cUL1CfQYZEU8WTCw">
            <path d="M66.8118,106.149 L46.8118,106.149"/>
            <path d="M66.8117,118.149 L46.8117,118.149"/>
            <path d="M66.8117,112.149 L46.8117,112.149"/>
            <path d="M66.8118,100.149 L46.8118,100.149"/>
            <path d="M46.8117,109.089 L46.8118,106.149"/>
            <path d="M46.8118,100.149 L46.8118,106.149"/>
            <path d="M46.8118,106.149 L46.8117,112.149"/>
            <path d="M46.8117,112.149 L46.8117,118.149"/>
            <path d="M66.8118,106.149 L66.8117,112.149"/>
            <path d="M66.8118,100.149 L66.8118,106.149"/>
            <path d="M66.8117,109.089 L66.8118,106.149"/>
            <path d="M66.8117,112.149 L66.8117,118.149"/>
        </g>
        <g id="product-1a35024a-85a8-4066-ab58-8dd8cb71c4da" class="IfcStairFlight material-null projection" ifc:name="StairFlight" ifc:guid="0QDG9AXQX0PgjOZTZBSSJQ">
            <path d="M25.3352,124.004 L45.3352,124.004"/>
            <path d="M25.3353,124.004 L45.3352,124.004"/>
            <path d="M25.3353,118.004 L45.3353,118.004"/>
            <path d="M25.3353,112.004 L45.3353,112.004"/>
            <path d="M25.3353,106.004 L45.3353,106.004"/>
            <path d="M25.3353,100.004 L45.3353,100.004"/>
            <path d="M25.3352,131.928 L45.3352,131.928"/>
            <path d="M45.3353,80.0043 L45.3353,100.004"/>
            <path d="M45.3353,106.004 L45.3353,100.004"/>
            <path d="M45.3353,112.004 L45.3353,106.004"/>
            <path d="M45.3353,118.004 L45.3353,112.004"/>
            <path d="M45.3352,124.004 L45.3353,118.004"/>
            <path d="M45.3352,124.004 L45.3352,131.928"/>
            <path d="M45.3353,100.004 L45.3352,131.928"/>
            <path d="M25.3352,131.928 L25.3352,124.004"/>
        </g>
        <g id="product-30237da8-d919-4560-9a90-8c79476136ca" class="IfcWall material-brick projection" ifc:name="Wall" ifc:guid="0m8tsesHb5O9gGZ7b7OJRA">
            <path d="M121.469,47.4058 L109.469,47.4058"/>
            <path d="M121.469,42.8058 L109.469,42.8058"/>
            <path d="M142.378,47.4059 L142.378,42.8059"/>
            <path d="M121.469,42.8058 L142.378,42.8059"/>
            <path d="M121.469,42.8058 L121.469,47.4058"/>
            <path d="M121.469,47.4058 L142.378,47.4059"/>
            <path d="M176.378,47.4059 L142.378,47.4059"/>
            <path d="M175.378,42.8059 L143.378,42.8059"/>
            <path d="M206.669,47.4059 L206.669,42.8059"/>
            <path d="M176.378,42.8059 L206.669,42.8059"/>
            <path d="M176.378,42.8059 L176.378,47.4059"/>
            <path d="M176.378,47.4059 L206.669,47.4059"/>
            <path d="M109.469,47.4058 L109.469,42.8058"/>
            <path d="M106.869,42.8058 L109.469,42.8058"/>
            <path d="M106.869,42.8058 L106.869,47.4058"/>
            <path d="M106.869,47.4058 L109.469,47.4058"/>
            <path d="M82.8685,47.4058 L25.3353,47.4058"/>
            <path d="M81.4685,42.8058 L26.6685,42.8058"/>
            <path d="M25.3353,44.8058 L25.3353,47.4058"/>
            <path d="M82.8685,44.8058 L82.8685,47.4058"/>
        </g>
        <g id="product-9e186f8e-6d9d-4dfc-afc2-65d62606564a" class="IfcWall material-brick projection" ifc:name="Wall" ifc:guid="2U66_ERPrD$A$2PTOc1bPA">
            <path d="M20.7353,155.905 L20.7353,135.905"/>
            <path d="M25.3353,154.905 L25.3353,136.905"/>
            <path d="M20.7353,160.406 L25.3353,160.406"/>
            <path d="M25.3353,155.905 L25.3353,160.406"/>
            <path d="M25.3353,155.905 L20.7353,155.905"/>
            <path d="M20.7353,155.905 L20.7353,160.406"/>
            <path d="M20.7353,47.4073 L20.7353,135.905"/>
            <path d="M20.7353,135.905 L25.3353,135.905"/>
            <path d="M25.3353,47.4073 L25.3353,135.905"/>
            <path d="M20.7353,47.4073 L25.3353,47.4073"/>
        </g>
        <g id="product-d5587670-192e-48fc-ba43-b8d046e4e8a1" class="IfcWall material-brick projection" ifc:name="Wall" ifc:guid="3LM7Pm6Iv8$Bf3kD16vEYX">
            <path d="M143.859,296.606 L20.7087,296.606"/>
            <path d="M143.859,292.006 L143.859,296.606"/>
            <path d="M20.7087,292.006 L143.859,292.006"/>
            <path d="M20.7087,296.606 L20.7087,292.006"/>
        </g>
        <g id="product-6296de12-573e-442b-b568-1de9b3144f48" class="IfcWall material-brick projection" ifc:name="Wall" ifc:guid="1YbjuILpv4AxLe7Ucp54z8">
            <path d="M148.459,172.006 L148.459,296.606"/>
            <path d="M143.859,172.006 L148.459,172.006"/>
            <path d="M143.859,296.606 L143.859,172.006"/>
            <path d="M148.459,296.606 L143.859,296.606"/>
        </g>
        <g id="product-ae618f6b-a439-4469-86e5-bd14de6c6945" class="IfcWall material-brick projection" ifc:name="Wall" ifc:guid="2kOOzhf3b4QORblHJUR6b5">
            <path d="M20.7087,292.006 L25.3087,292.006"/>
            <path d="M25.3087,288.006 L25.3087,292.006"/>
            <path d="M25.3087,288.006 L20.7087,288.006"/>
            <path d="M20.7087,288.006 L20.7087,292.006"/>
            <path d="M20.7087,189.406 L25.3087,189.406"/>
            <path d="M25.3087,165.006 L25.3087,189.406"/>
            <path d="M20.7087,165.006 L25.3087,165.006"/>
            <path d="M20.7087,165.006 L20.7087,189.406"/>
        </g>
        <g id="product-426f958a-b64b-4125-9b1b-b3aa36a11491" class="IfcColumn material-null projection" ifc:name="Column" ifc:guid="12RvMAjaj19PiRiweseHIH">
            <path d="M45.0898,98.3628 L44.2898,98.3628"/>
            <path d="M45.0898,99.1628 L45.0898,98.3628"/>
            <path d="M44.2898,99.1628 L45.0898,99.1628"/>
            <path d="M44.2898,98.3628 L44.2898,99.1628"/>
            <path d="M44.1898,99.2628 L45.1898,99.2628"/>
            <path d="M45.1898,99.2628 L45.1898,98.2628"/>
            <path d="M45.1898,98.2628 L44.1898,98.2628"/>
            <path d="M44.1898,98.2628 L44.1898,99.2628"/>
        </g>
        <g id="product-3d37ed4a-cd35-4fa2-9d22-a804144abf7d" class="IfcWall material-brick projection" ifc:name="Wall" ifc:guid="0zD_rApJLFefqYg0GKIhzz">
            <path d="M139.469,96.2807 L106.869,96.2807"/>
            <path d="M139.469,93.6807 L139.469,96.2807"/>
            <path d="M109.469,93.6807 L139.469,93.6807"/>
            <path d="M106.869,96.2807 L109.469,93.6807"/>
        </g>
        <g id="product-549a2f60-dad8-4654-a0fe-3aa58fb968ea" class="IfcWall material-glass projection" ifc:name="Wall" ifc:guid="1KcYzWsjX6LA3_EgMFkMZg">
            <path d="M139.469,61.6397 L109.469,61.6397"/>
            <path d="M139.469,61.4397 L139.469,61.6397"/>
            <path d="M109.469,61.4397 L139.469,61.4397"/>
            <path d="M109.469,61.6397 L109.469,61.4397"/>
        </g>
        <g id="product-35b8b957-36f5-4bda-812c-ae0fca7a07d9" class="IfcFurniture material-null projection" ifc:name="Furniture" ifc:guid="0rkBbNDlLBse4ihW$AUWVP">
            <path d="M106.869,155.406 L127.468,155.406"/>
            <path d="M127.468,155.406 L139.468,167.406"/>
            <path d="M106.869,155.406 L106.869,167.406"/>
        </g>
        <g id="product-299f5ad6-6271-4c88-a2d2-081db94f381d" class="IfcFurniture material-null projection" ifc:name="Furniture" ifc:guid="0fdrhMOd5CYABI21svJpWT">
            <path d="M127.469,155.406 L127.468,120.006"/>
            <path d="M127.468,120.006 L139.468,120.006"/>
            <path d="M139.469,167.406 L139.468,120.006"/>
            <path d="M139.468,167.406 L127.469,155.406"/>
        </g>
        <g id="product-29e52a2d-b89d-49d7-8201-799fe3786fbc" class="IfcWall material-brick projection" ifc:name="Wall" ifc:guid="0fvIejk9r9ru81UP$ZU6_y">
            <path d="M109.469,93.6807 L106.869,96.2807"/>
            <path d="M109.469,93.5757 L109.469,93.6807"/>
            <path d="M109.469,93.5757 L106.869,93.5757"/>
            <path d="M106.869,96.2807 L106.869,93.5757"/>
            <path d="M106.869,75.5757 L106.869,47.4058"/>
            <path d="M106.869,75.5757 L109.469,75.5757"/>
            <path d="M109.469,47.4058 L109.469,75.5757"/>
            <path d="M106.869,47.4058 L109.469,47.4058"/>
        </g>
    <g ifc:guid="10sNbM3Wn5_u_kN5bfbhqv" ifc:name="Column.002" class="IfcColumn material-null cut"><path d="M429.73283767700195,42.80732853032699 L429.73283767700195,45.898530312553554 L429.73283767700195,47.407319375053554 L432.8240394592285,47.407319375053554 L434.3328285217285,47.407319375053554 L434.3328285217285,44.31611759282699 L434.3328285217285,42.80732853032699 L431.24162673950195,42.80732853032699 Z"/></g><g ifc:guid="2G0fXAMH5EFhoC6YJg2h2e" ifc:name="Column.002" class="IfcColumn material-null cut"><path d="M123.93529891967773,42.80732853032699 L123.93529891967773,45.898530312553554 L123.93529891967773,47.407319375053554 L127.02649116516113,47.407319375053554 L128.5352897644043,47.407319375053554 L128.5352897644043,44.31611759282699 L128.5352897644043,42.80732853032699 L125.4440975189209,42.80732853032699 Z"/></g><g ifc:guid="21QBHLlUr2sRvpcCydN1u$" ifc:name="Column.003" class="IfcColumn material-null cut"><path d="M123.93529891967773,167.40573627568833 L123.93529891967773,170.4969380579149 L123.93529891967773,172.0057271204149 L127.02649116516113,172.0057271204149 L128.5352897644043,172.0057271204149 L128.5352897644043,168.91452533818833 L128.5352897644043,167.40573627568833 L125.4440975189209,167.40573627568833 Z"/></g><g ifc:guid="0eCGh$jkHDqfyG4kahRwon" ifc:name="Column" class="IfcColumn material-null cut"><path d="M326.53528213500977,167.40581256963364 L326.53528213500977,170.4970143518602 L326.53528213500977,172.0058034143602 L329.6264839172363,172.0058034143602 L331.1352729797363,172.0058034143602 L331.1352729797363,168.91460163213364 L331.1352729797363,167.40581256963364 L328.04407119750977,167.40581256963364 Z"/></g><g ifc:guid="0NGZUaqkzBPBqoPUPS$4mT" ifc:name="Column" class="IfcColumn material-null cut"><path d="M429.73283767700195,167.40586979009262 L429.73283767700195,170.4970715723192 L429.73283767700195,172.0058606348192 L432.8240394592285,172.0058606348192 L434.3328285217285,172.0058606348192 L434.3328285217285,168.91465885259262 L434.3328285217285,167.40586979009262 L431.24162673950195,167.40586979009262 Z"/></g><g ifc:guid="3pUS_Z$kXES8mQQ3ycq7ZL" ifc:name="Column.003" class="IfcColumn material-null cut"><path d="M176.37804985046387,42.80591709233871 L176.37804985046387,45.89711887456527 L176.37804985046387,47.40590793706527 L179.46924209594727,47.40590793706527 L180.9780502319336,47.40590793706527 L180.9780502319336,44.31470615483871 L180.9780502319336,42.80591709233871 L177.88684844970703,42.80591709233871 Z"/></g><g ifc:guid="2qUf_epbzFMPufew4ZYNxr" ifc:name="Column.002" class="IfcColumn material-null cut"><path d="M20.73528289794922,42.80732853032699 L20.73528289794922,45.898530312553554 L20.73528289794922,47.407319375053554 L23.82648468017578,47.407319375053554 L25.33527374267578,47.407319375053554 L25.33527374267578,44.31611759282699 L25.33527374267578,42.80732853032699 L22.244091033935547,42.80732853032699 Z"/></g><g ifc:guid="1OH7dTZ0L1P8$mU0XfJBp$" ifc:name="Column.003" class="IfcColumn material-null cut"><path d="M326.53528213500977,42.80591709233871 L326.53528213500977,45.89711887456527 L326.53528213500977,47.40590793706527 L329.6264839172363,47.40590793706527 L331.1352729797363,47.40590793706527 L331.1352729797363,44.31470615483871 L331.1352729797363,42.80591709233871 L328.04407119750977,42.80591709233871 Z"/></g><g ifc:guid="2fyircNyr2DOn3xi4HTA8s" ifc:name="Column.003" class="IfcColumn material-null cut"><path d="M20.73528289794922,160.40576679326645 L20.73528289794922,163.496968575493 L20.73528289794922,165.005757637993 L23.82648468017578,165.005757637993 L25.33527374267578,165.005757637993 L25.33527374267578,161.91455585576645 L25.33527374267578,160.40576679326645 L22.244091033935547,160.40576679326645 Z"/></g><g ifc:guid="0VfBWy59n8dRo$6zEptMai" ifc:name="Column" class="IfcColumn material-null cut"><path d="M149.5621681213379,217.40575534917465 L149.5621681213379,218.69697315312973 L149.5621681213379,222.00574619390122 L150.85339546203613,222.00574619390122 L154.16215896606445,222.00574619390122 L154.16215896606445,220.71452838994614 L154.16215896606445,217.40575534917465 L152.8709316253662,217.40575534917465 Z"/></g><g ifc:guid="15ygWbfYH6FgYClgaIEWUQ" ifc:name="Column" class="IfcColumn material-null cut"><path d="M280.60813903808594,217.40575534917465 L280.60813903808594,218.69697315312973 L280.60813903808594,222.00574619390122 L281.899356842041,222.00574619390122 L285.2081298828125,222.00574619390122 L285.2081298828125,220.71452838994614 L285.2081298828125,217.40575534917465 L283.9169120788574,217.40575534917465 Z"/></g><g ifc:guid="3af5nQAm1Ak918QMRtfhMs" ifc:name="Column.003" class="IfcColumn material-null cut"><path d="M176.37804985046387,167.40573627568833 L176.37804985046387,170.4969380579149 L176.37804985046387,172.0057271204149 L179.46924209594727,172.0057271204149 L180.9780502319336,172.0057271204149 L180.9780502319336,168.91452533818833 L180.9780502319336,167.40573627568833 L177.88684844970703,167.40573627568833 Z"/></g><g ifc:guid="0qhPhPi2zEmR8Ln7VqhH7x" ifc:name="Column.003" class="IfcColumn material-null cut"><path d="M273.92528533935547,167.40573627568833 L273.92528533935547,170.4969380579149 L273.92528533935547,172.0057271204149 L277.01648712158203,172.0057271204149 L278.52527618408203,172.0057271204149 L278.52527618408203,168.91452533818833 L278.52527618408203,167.40573627568833 L275.43407440185547,167.40573627568833 Z"/></g><g ifc:guid="147$rfUZbC5xHEUU4HxxJD" ifc:name="Column.003" class="IfcColumn material-null cut"><path d="M273.92528533935547,42.80591709233871 L273.92528533935547,45.89711887456527 L273.92528533935547,47.40590793706527 L277.01648712158203,47.40590793706527 L278.52527618408203,47.40590793706527 L278.52527618408203,44.31470615483871 L278.52527618408203,42.80591709233871 L275.43407440185547,42.80591709233871 Z"/></g><g ifc:guid="0QDG9AXQX0PgjOZTZBSSJQ" ifc:name="StairFlight" class="IfcStairFlight material-null cut"><path d="M35.97332000732422,131.92840320684067 L45.335235595703125,131.928422280327 L45.335235595703125,126.49772388555161 L45.335235595703125,126.17522937871567 L45.335235595703125,124.00430423833481 L32.57164001464844,124.00430423833481 L25.335235595703125,124.00428516484848 L25.335235595703125,126.17521030522934 L25.335235595703125,126.49770481206528 L25.335235595703125,131.92838413335434 Z"/></g><g ifc:guid="12RvMAjaj19PiRiweseHIH" ifc:name="Column" class="IfcColumn material-null cut"><path/><path d="M45.189781188964844,98.26284153081528 L44.88513946533203,98.26284153081528 L44.18977737426758,98.26284153081528 L44.18977737426758,98.56748325444809 L44.18977737426758,99.26282627202622 L44.49441909790039,99.26282627202622 L45.189781188964844,99.26282627202622 L45.189781188964844,98.9581845483934 Z M44.28977966308594,98.36282474614731 L44.53350067138672,98.36282474614731 L45.089778900146484,98.36282474614731 L45.089778900146484,98.60654575444809 L45.089778900146484,99.16284305669419 L44.84607696533203,99.16284305669419 L44.28977966308594,99.16284305669419 L44.28977966308594,98.9191220483934 Z"/></g><g class="301zTpBY56QRbhbSgqyTtD 3LM7Pm6Iv8$Bf3kD16vEYX 1Esm3AND1CI8J4fqgYsqen 02QSUeXF96zws6rSEwOtxB 0m8tsesHb5O9gGZ7b7OJRA cut 2U66_ERPrD$A$2PTOc1bPA material-brick 0uchRx$l984OM1mMLwWf3F 0J9S4Srlb1MOsgNvH90_Ni 0NXfgi9BT5$x6dqiz38cKQ 0fvIejk9r9ru81UP$ZU6_y 0zD_rApJLFefqYg0GKIhzz 2kOOzhf3b4QORblHJUR6b5 0Rf_6ET3jB1A$TE_PSB8cB 1YbjuILpv4AxLe7Ucp54z8 IfcWall"><path d="M106.869,42.806 L106.869,45.75 L106.869,47.406 L106.869,68.869 L106.869,75.576 L108.849,75.576 L109.469,75.576 L109.469,68.869 L109.469,47.406 L109.469,46.256 L109.469,42.806 L108.819,42.806 Z"/></g><g class="301zTpBY56QRbhbSgqyTtD 3LM7Pm6Iv8$Bf3kD16vEYX 1Esm3AND1CI8J4fqgYsqen 02QSUeXF96zws6rSEwOtxB 0m8tsesHb5O9gGZ7b7OJRA cut 2U66_ERPrD$A$2PTOc1bPA material-brick 0uchRx$l984OM1mMLwWf3F 0J9S4Srlb1MOsgNvH90_Ni 0NXfgi9BT5$x6dqiz38cKQ 0fvIejk9r9ru81UP$ZU6_y 0zD_rApJLFefqYg0GKIhzz 2kOOzhf3b4QORblHJUR6b5 0Rf_6ET3jB1A$TE_PSB8cB 1YbjuILpv4AxLe7Ucp54z8 IfcWall"><path d="M48.923,77.404 L25.335,77.404 L25.335,47.407 L23.863,47.407 L20.735,47.407 L20.735,101.112 L20.735,135.905 L24.141,135.905 L25.335,135.905 L25.335,101.112 L25.335,80.004 L43.373,80.004 L66.961,80.004 L66.961,78.878 L66.961,77.404 Z"/></g><g class="301zTpBY56QRbhbSgqyTtD 3LM7Pm6Iv8$Bf3kD16vEYX 1Esm3AND1CI8J4fqgYsqen 02QSUeXF96zws6rSEwOtxB 0m8tsesHb5O9gGZ7b7OJRA cut 2U66_ERPrD$A$2PTOc1bPA material-brick 0uchRx$l984OM1mMLwWf3F 0J9S4Srlb1MOsgNvH90_Ni 0NXfgi9BT5$x6dqiz38cKQ 0fvIejk9r9ru81UP$ZU6_y 0zD_rApJLFefqYg0GKIhzz 2kOOzhf3b4QORblHJUR6b5 0Rf_6ET3jB1A$TE_PSB8cB 1YbjuILpv4AxLe7Ucp54z8 IfcWall"><path d="M106.869,93.576 L106.869,94.22 L106.869,96.281 L120.84,96.281 L139.469,96.281 L141.449,96.281 L142.069,96.281 L142.069,84.644 L142.069,47.406 L142.378,47.406 L142.378,45.566 L142.378,42.806 L126.696,42.806 L121.469,42.806 L121.469,43.956 L121.469,47.406 L126.696,47.406 L139.469,47.406 L139.469,84.644 L139.469,93.681 L126.611,93.681 L109.469,93.681 L109.469,93.601 L109.469,93.576 L107.488,93.576 Z"/></g><g class="301zTpBY56QRbhbSgqyTtD 3LM7Pm6Iv8$Bf3kD16vEYX 1Esm3AND1CI8J4fqgYsqen 02QSUeXF96zws6rSEwOtxB 0m8tsesHb5O9gGZ7b7OJRA cut 2U66_ERPrD$A$2PTOc1bPA material-brick 0uchRx$l984OM1mMLwWf3F 0J9S4Srlb1MOsgNvH90_Ni 0NXfgi9BT5$x6dqiz38cKQ 0fvIejk9r9ru81UP$ZU6_y 0zD_rApJLFefqYg0GKIhzz 2kOOzhf3b4QORblHJUR6b5 0Rf_6ET3jB1A$TE_PSB8cB 1YbjuILpv4AxLe7Ucp54z8 IfcWall"><path d="M25.335,160.406 L25.335,157.674 L25.335,155.905 L21.929,155.905 L20.735,155.905 L20.735,157.674 L20.735,160.406 L23.863,160.406 Z"/></g><g class="301zTpBY56QRbhbSgqyTtD 3LM7Pm6Iv8$Bf3kD16vEYX 1Esm3AND1CI8J4fqgYsqen 02QSUeXF96zws6rSEwOtxB 0m8tsesHb5O9gGZ7b7OJRA cut 2U66_ERPrD$A$2PTOc1bPA material-brick 0uchRx$l984OM1mMLwWf3F 0J9S4Srlb1MOsgNvH90_Ni 0NXfgi9BT5$x6dqiz38cKQ 0fvIejk9r9ru81UP$ZU6_y 0zD_rApJLFefqYg0GKIhzz 2kOOzhf3b4QORblHJUR6b5 0Rf_6ET3jB1A$TE_PSB8cB 1YbjuILpv4AxLe7Ucp54z8 IfcWall"><path d="M20.709,165.006 L20.709,173.139 L20.709,189.406 L23.775,189.406 L25.309,189.406 L25.309,173.139 L25.309,172.006 L71.783,172.006 L86.306,172.006 L86.306,168.501 L86.306,167.406 L71.783,167.406 L25.309,167.406 L25.309,165.006 L23.775,165.006 Z"/></g><g class="301zTpBY56QRbhbSgqyTtD 3LM7Pm6Iv8$Bf3kD16vEYX 1Esm3AND1CI8J4fqgYsqen 02QSUeXF96zws6rSEwOtxB 0m8tsesHb5O9gGZ7b7OJRA cut 2U66_ERPrD$A$2PTOc1bPA material-brick 0uchRx$l984OM1mMLwWf3F 0J9S4Srlb1MOsgNvH90_Ni 0NXfgi9BT5$x6dqiz38cKQ 0fvIejk9r9ru81UP$ZU6_y 0zD_rApJLFefqYg0GKIhzz 2kOOzhf3b4QORblHJUR6b5 0Rf_6ET3jB1A$TE_PSB8cB 1YbjuILpv4AxLe7Ucp54z8 IfcWall"><path d="M25.309,289.339 L25.309,288.006 L22.242,288.006 L20.709,288.006 L20.709,289.339 L20.709,292.006 L20.709,294.068 L20.709,296.606 L75.914,296.606 L143.859,296.606 L145.83,296.606 L148.459,296.606 L148.459,243.206 L148.459,172.006 L184.414,172.006 L184.414,170.034 L184.414,167.406 L142.069,167.406 L142.069,128.453 L142.069,116.281 L140.088,116.281 L139.469,116.281 L139.469,128.453 L139.468,167.406 L124.903,167.406 L106.306,167.406 L106.306,170.911 L106.306,172.006 L124.903,172.006 L143.859,172.006 L143.859,225.406 L143.859,292.006 L88.654,292.006 L25.309,292.006 Z"/></g><g class="301zTpBY56QRbhbSgqyTtD 3LM7Pm6Iv8$Bf3kD16vEYX 1Esm3AND1CI8J4fqgYsqen 02QSUeXF96zws6rSEwOtxB 0m8tsesHb5O9gGZ7b7OJRA cut 2U66_ERPrD$A$2PTOc1bPA material-brick 0uchRx$l984OM1mMLwWf3F 0J9S4Srlb1MOsgNvH90_Ni 0NXfgi9BT5$x6dqiz38cKQ 0fvIejk9r9ru81UP$ZU6_y 0zD_rApJLFefqYg0GKIhzz 2kOOzhf3b4QORblHJUR6b5 0Rf_6ET3jB1A$TE_PSB8cB 1YbjuILpv4AxLe7Ucp54z8 IfcWall"><path d="M429.994,47.406 L429.994,45.927 L429.994,42.806 L358.211,42.806 L206.669,42.806 L188.494,42.806 L176.378,42.806 L176.378,44.646 L176.378,47.406 L188.494,47.406 L202.069,47.406 L202.069,77.406 L202.069,117.406 L179.114,117.406 L142.376,117.406 L142.376,118.52 L142.376,120.006 L169.93,120.006 L206.669,120.006 L206.669,118.892 L206.669,117.406 L206.669,87.406 L206.669,47.406 L278.452,47.406 Z"/></g><g class="301zTpBY56QRbhbSgqyTtD 3LM7Pm6Iv8$Bf3kD16vEYX 1Esm3AND1CI8J4fqgYsqen 02QSUeXF96zws6rSEwOtxB 0m8tsesHb5O9gGZ7b7OJRA cut 2U66_ERPrD$A$2PTOc1bPA material-brick 0uchRx$l984OM1mMLwWf3F 0J9S4Srlb1MOsgNvH90_Ni 0NXfgi9BT5$x6dqiz38cKQ 0fvIejk9r9ru81UP$ZU6_y 0zD_rApJLFefqYg0GKIhzz 2kOOzhf3b4QORblHJUR6b5 0Rf_6ET3jB1A$TE_PSB8cB 1YbjuILpv4AxLe7Ucp54z8 IfcWall"><path d="M429.994,167.406 L431.527,167.406 L434.594,167.406 L434.594,127.406 L434.594,47.407 L433.06,47.407 L429.994,47.407 L429.994,87.407 Z"/></g><g class="1KcYzWsjX6LA3_EgMFkMZg cut material-glass IfcWall"><path d="M123.469,61.64 L139.469,61.64 L139.469,61.546 L139.469,61.44 L125.469,61.44 L109.469,61.44 L109.469,61.533 L109.469,61.64 Z"/></g><g class="layer-material-BrickWall 0m8tsesHb5O9gGZ7b7OJRA 1YbjuILpv4AxLe7Ucp54z8 IfcWall 301zTpBY56QRbhbSgqyTtD 1Esm3AND1CI8J4fqgYsqen 02QSUeXF96zws6rSEwOtxB 2U66_ERPrD$A$2PTOc1bPA IfcMaterialLayer 0NXfgi9BT5$x6dqiz38cKQ 0zD_rApJLFefqYg0GKIhzz 0Rf_6ET3jB1A$TE_PSB8cB 2kOOzhf3b4QORblHJUR6b5 3LM7Pm6Iv8$Bf3kD16vEYX cut material-brick 0J9S4Srlb1MOsgNvH90_Ni 0fvIejk9r9ru81UP$ZU6_y 0uchRx$l984OM1mMLwWf3F"><path d="M106.869,42.806 L106.869,45.75 L106.869,47.406 L106.869,68.869 L106.869,75.576 L108.849,75.576 L109.469,75.576 L109.469,68.869 L109.469,47.406 L109.469,46.256 L109.469,42.806 L108.819,42.806 Z"/></g><g class="layer-material-BrickWall 0m8tsesHb5O9gGZ7b7OJRA 1YbjuILpv4AxLe7Ucp54z8 IfcWall 301zTpBY56QRbhbSgqyTtD 1Esm3AND1CI8J4fqgYsqen 02QSUeXF96zws6rSEwOtxB 2U66_ERPrD$A$2PTOc1bPA IfcMaterialLayer 0NXfgi9BT5$x6dqiz38cKQ 0zD_rApJLFefqYg0GKIhzz 0Rf_6ET3jB1A$TE_PSB8cB 2kOOzhf3b4QORblHJUR6b5 3LM7Pm6Iv8$Bf3kD16vEYX cut material-brick 0J9S4Srlb1MOsgNvH90_Ni 0fvIejk9r9ru81UP$ZU6_y 0uchRx$l984OM1mMLwWf3F"><path d="M48.923,77.404 L25.335,77.404 L25.335,47.407 L23.863,47.407 L20.735,47.407 L20.735,101.112 L20.735,135.905 L24.141,135.905 L25.335,135.905 L25.335,101.112 L25.335,80.004 L43.373,80.004 L66.961,80.004 L66.961,78.878 L66.961,77.404 Z"/></g><g class="layer-material-BrickWall 0m8tsesHb5O9gGZ7b7OJRA 1YbjuILpv4AxLe7Ucp54z8 IfcWall 301zTpBY56QRbhbSgqyTtD 1Esm3AND1CI8J4fqgYsqen 02QSUeXF96zws6rSEwOtxB 2U66_ERPrD$A$2PTOc1bPA IfcMaterialLayer 0NXfgi9BT5$x6dqiz38cKQ 0zD_rApJLFefqYg0GKIhzz 0Rf_6ET3jB1A$TE_PSB8cB 2kOOzhf3b4QORblHJUR6b5 3LM7Pm6Iv8$Bf3kD16vEYX cut material-brick 0J9S4Srlb1MOsgNvH90_Ni 0fvIejk9r9ru81UP$ZU6_y 0uchRx$l984OM1mMLwWf3F"><path d="M106.869,93.576 L106.869,94.22 L106.869,96.281 L120.84,96.281 L139.469,96.281 L141.449,96.281 L142.069,96.281 L142.069,84.644 L142.069,47.406 L142.378,47.406 L142.378,45.566 L142.378,42.806 L126.696,42.806 L121.469,42.806 L121.469,43.956 L121.469,47.406 L126.696,47.406 L139.469,47.406 L139.469,84.644 L139.469,93.681 L126.611,93.681 L109.469,93.681 L109.469,93.601 L109.469,93.576 L107.488,93.576 Z"/></g><g class="layer-material-BrickWall 0m8tsesHb5O9gGZ7b7OJRA 1YbjuILpv4AxLe7Ucp54z8 IfcWall 301zTpBY56QRbhbSgqyTtD 1Esm3AND1CI8J4fqgYsqen 02QSUeXF96zws6rSEwOtxB 2U66_ERPrD$A$2PTOc1bPA IfcMaterialLayer 0NXfgi9BT5$x6dqiz38cKQ 0zD_rApJLFefqYg0GKIhzz 0Rf_6ET3jB1A$TE_PSB8cB 2kOOzhf3b4QORblHJUR6b5 3LM7Pm6Iv8$Bf3kD16vEYX cut material-brick 0J9S4Srlb1MOsgNvH90_Ni 0fvIejk9r9ru81UP$ZU6_y 0uchRx$l984OM1mMLwWf3F"><path d="M23.863,160.406 L25.335,160.406 L25.335,157.674 L25.335,155.905 L21.929,155.905 L20.735,155.905 L20.735,157.674 L20.735,160.406 Z"/></g><g class="layer-material-BrickWall 0m8tsesHb5O9gGZ7b7OJRA 1YbjuILpv4AxLe7Ucp54z8 IfcWall 301zTpBY56QRbhbSgqyTtD 1Esm3AND1CI8J4fqgYsqen 02QSUeXF96zws6rSEwOtxB 2U66_ERPrD$A$2PTOc1bPA IfcMaterialLayer 0NXfgi9BT5$x6dqiz38cKQ 0zD_rApJLFefqYg0GKIhzz 0Rf_6ET3jB1A$TE_PSB8cB 2kOOzhf3b4QORblHJUR6b5 3LM7Pm6Iv8$Bf3kD16vEYX cut material-brick 0J9S4Srlb1MOsgNvH90_Ni 0fvIejk9r9ru81UP$ZU6_y 0uchRx$l984OM1mMLwWf3F"><path d="M20.709,165.006 L20.709,173.139 L20.709,189.406 L23.775,189.406 L25.309,189.406 L25.309,173.139 L25.309,172.006 L71.783,172.006 L86.306,172.006 L86.306,168.501 L86.306,167.406 L71.783,167.406 L25.309,167.406 L25.309,165.006 L23.775,165.006 Z"/></g><g class="layer-material-BrickWall 0m8tsesHb5O9gGZ7b7OJRA 1YbjuILpv4AxLe7Ucp54z8 IfcWall 301zTpBY56QRbhbSgqyTtD 1Esm3AND1CI8J4fqgYsqen 02QSUeXF96zws6rSEwOtxB 2U66_ERPrD$A$2PTOc1bPA IfcMaterialLayer 0NXfgi9BT5$x6dqiz38cKQ 0zD_rApJLFefqYg0GKIhzz 0Rf_6ET3jB1A$TE_PSB8cB 2kOOzhf3b4QORblHJUR6b5 3LM7Pm6Iv8$Bf3kD16vEYX cut material-brick 0J9S4Srlb1MOsgNvH90_Ni 0fvIejk9r9ru81UP$ZU6_y 0uchRx$l984OM1mMLwWf3F"><path d="M25.309,289.339 L25.309,288.006 L22.242,288.006 L20.709,288.006 L20.709,289.339 L20.709,292.006 L20.709,294.068 L20.709,296.606 L75.914,296.606 L143.859,296.606 L145.83,296.606 L148.459,296.606 L148.459,243.206 L148.459,172.006 L184.414,172.006 L184.414,170.034 L184.414,167.406 L142.069,167.406 L142.069,128.453 L142.069,116.281 L140.088,116.281 L139.469,116.281 L139.469,128.453 L139.468,167.406 L124.903,167.406 L106.306,167.406 L106.306,170.911 L106.306,172.006 L124.903,172.006 L143.859,172.006 L143.859,225.406 L143.859,292.006 L88.654,292.006 L25.309,292.006 Z"/></g><g class="layer-material-BrickWall 0m8tsesHb5O9gGZ7b7OJRA 1YbjuILpv4AxLe7Ucp54z8 IfcWall 301zTpBY56QRbhbSgqyTtD 1Esm3AND1CI8J4fqgYsqen 02QSUeXF96zws6rSEwOtxB 2U66_ERPrD$A$2PTOc1bPA IfcMaterialLayer 0NXfgi9BT5$x6dqiz38cKQ 0zD_rApJLFefqYg0GKIhzz 0Rf_6ET3jB1A$TE_PSB8cB 2kOOzhf3b4QORblHJUR6b5 3LM7Pm6Iv8$Bf3kD16vEYX cut material-brick 0J9S4Srlb1MOsgNvH90_Ni 0fvIejk9r9ru81UP$ZU6_y 0uchRx$l984OM1mMLwWf3F"><path d="M429.994,47.406 L429.994,45.927 L429.994,42.806 L358.211,42.806 L206.669,42.806 L188.494,42.806 L176.378,42.806 L176.378,44.646 L176.378,47.406 L188.494,47.406 L202.069,47.406 L202.069,77.406 L202.069,117.406 L179.114,117.406 L142.376,117.406 L142.376,118.52 L142.376,120.006 L169.93,120.006 L206.669,120.006 L206.669,118.892 L206.669,117.406 L206.669,87.406 L206.669,47.406 L278.452,47.406 Z"/></g><g class="layer-material-BrickWall 0m8tsesHb5O9gGZ7b7OJRA 1YbjuILpv4AxLe7Ucp54z8 IfcWall 301zTpBY56QRbhbSgqyTtD 1Esm3AND1CI8J4fqgYsqen 02QSUeXF96zws6rSEwOtxB 2U66_ERPrD$A$2PTOc1bPA IfcMaterialLayer 0NXfgi9BT5$x6dqiz38cKQ 0zD_rApJLFefqYg0GKIhzz 0Rf_6ET3jB1A$TE_PSB8cB 2kOOzhf3b4QORblHJUR6b5 3LM7Pm6Iv8$Bf3kD16vEYX cut material-brick 0J9S4Srlb1MOsgNvH90_Ni 0fvIejk9r9ru81UP$ZU6_y 0uchRx$l984OM1mMLwWf3F"><path d="M429.994,167.406 L431.527,167.406 L434.594,167.406 L434.594,127.406 L434.594,47.407 L433.06,47.407 L429.994,47.407 L429.994,87.407 Z"/></g><g class="layer-material-Glass 1KcYzWsjX6LA3_EgMFkMZg cut material-glass IfcMaterialLayer IfcWall"><path d="M123.469,61.64 L139.469,61.64 L139.469,61.546 L139.469,61.44 L125.469,61.44 L109.469,61.44 L109.469,61.533 L109.469,61.64 Z"/></g></g>
</svg>